<?xml version="1.0" standalone="no"?><!DOCTYPE svg PUBLIC "-//W3C//DTD SVG 1.1//EN" "http://www.w3.org/Graphics/SVG/1.1/DTD/svg11.dtd"><svg t="1543906930965" class="icon" style="" viewBox="0 0 1024 1024" version="1.1" xmlns="http://www.w3.org/2000/svg" p-id="2346" xmlns:xlink="http://www.w3.org/1999/xlink" width="200" height="200"><defs><style type="text/css"></style></defs><path d="M749.1 545.5c-3.8-1.2-29.1 6.7-11.5-48.5l-0.2 0c39.1-55.2 68.9-102.3 68.9-166 0-98-65.2-148-140.9-148-13.5 0-26.4 2.9-38.9 6.1 30.4 27.9 50.1 66.4 50.1 122.8 0 70.8-15.9 137.5-59.3 195.7-16.8 21.1-11.8 54.5 5.4 59.1 94.1 25.1 172.7 87.2 194.6 149L819 733c0 24.4-29 45.4-40.7 60.4 85.8-8.7 145.4-31 145.4-81.4l0-19.3C923.7 639.5 832.3 573.1 749.1 545.5z" p-id="2347"></path><path d="M539.4 586.2c-4.8-1.6-35.2-15.3-16.2-72.9l-0.3 0c49.4-50.9 87.2-132.9 87.2-213.6 0-124.1-82.5-189.1-178.4-189.1-95.9-0.1-178 65-178 189.1 0 81 37.6 163.3 87.3 214.1 19.4 50.9-15.3 69.7-22.6 72.4-100.4 36.3-218.3 102.5-218.3 167.9l0 24.5c0 89 172.6 109.3 332.4 109.3 160 0 330.5-20.2 330.5-109.3l0-24.5C763.2 686.8 644.8 621.1 539.4 586.2z" p-id="2348"></path></svg>