<?xml version="1.0" standalone="no"?><!DOCTYPE svg PUBLIC "-//W3C//DTD SVG 1.1//EN" "http://www.w3.org/Graphics/SVG/1.1/DTD/svg11.dtd"><svg t="1543810968143" class="icon" style="" viewBox="0 0 1024 1024" version="1.1" xmlns="http://www.w3.org/2000/svg" p-id="2396" xmlns:xlink="http://www.w3.org/1999/xlink" width="200" height="200"><defs><style type="text/css"></style></defs><path d="M512 507.072a32 32 0 0 1-32-32V32a32 32 0 0 1 64 0v443.072a32 32 0 0 1-32 32z" p-id="2397"></path><path d="M512 1024C242.88 1024 23.936 805.056 23.936 535.936c0-165.76 84.224-318.912 225.344-409.6a32 32 0 1 1 34.624 53.824c-122.752 78.848-195.968 211.84-195.968 355.776A424.576 424.576 0 0 0 512 960a424.576 424.576 0 0 0 424.064-424.064c0-143.872-73.28-276.864-195.968-355.776a32 32 0 1 1 34.624-53.824c141.056 90.688 225.344 243.84 225.344 409.6C1000.064 805.056 781.12 1024 512 1024z" p-id="2398"></path></svg>